<svg xmlns="http://www.w3.org/2000/svg" viewBox="0 0 256 417" width="24" height="24">
    <path fill="#47A248"
        d="M128 0C114.3 57.7 88.7 82 79.4 113.3c-6.4 21.2-7.5 46.6-3.6 65.8 10.6 51 51.4 97.1 52.3 130.3.8 31.7-4.3 44.7-9.1 50.5 0 0 0-4.8-.1-8.3-1.4-7.7-1.6-14.5-1.6-14.5 0-3.7 4.7-13 8.8-14.5 0 0 0-4.2.4-10.5 1.5-28.4-5-67.8-27.8-96.3-10.3-12.9-10.6-13.4-10.6-13.4-.5-19.1 8.6-46.7 24.4-66.6C122.1 114.6 128 64 128 64s7.9 50.7 15.2 71.5c13 37.6 34.5 53.6 42.1 98.1.5 3.1 5.6 15.2 5.6 15.2 1.3-7.2 2.5-27 3.3-37.3 2-21.9 1.8-44.6-9.8-68.6-9-18.6-26.1-45.3-39.7-67.2z" />
</svg>
  