<svg width="36" height="36" viewBox="0 0 256 255" xmlns="http://www.w3.org/2000/svg">
    <path
        d="M126.916 0c-15.68.073-29.298.653-40.834 1.695-35.978 3.358-40.75 10.498-40.75 23.633v18.842h81.499v9.421H55.332c-18.746 0-33.522 10.727-39.635 32.663-6.83 24.055-7.143 39.153 0 63.579 4.692 15.652 13.44 32.663 26.857 32.663h18.841v-25.263c0-22.564 19.299-42.25 40.751-42.25h42.248c14.414 0 25.504-12.588 25.504-27V25.33c0-14.166-12.521-24.576-25.504-25.329A234.683 234.683 0 0 0 126.916 0zm-26.696 18.707a9.368 9.368 0 1 1 0 18.736 9.368 9.368 0 0 1 0-18.736z"
        fill="#3776AB" />
    <path
        d="M191.64 52.002h-18.842v25.264c0 22.563-18.932 42.249-40.751 42.249h-42.248c-14.414 0-25.504 12.588-25.504 27v79.17c0 14.167 12.521 22.749 25.504 24.577 16.833 2.644 33.473 3.666 50.013 1.694 36.168-4.075 40.752-11.532 40.752-24.577v-18.842h-81.5v-9.421h71.167c18.746 0 28.875-9.79 34.987-32.663 7.092-24.692 6.88-39.359 0-63.58-4.691-15.65-13.44-32.662-26.856-32.662zm-26.697 167.31a9.368 9.368 0 1 1 0-18.736 9.368 9.368 0 0 1 0 18.737z"
        fill="#FFD43B" />
</svg>
  