<svg width="36" height="36" viewBox="0 0 841.9 595.3" xmlns="http://www.w3.org/2000/svg">
    <g fill="#61DAFB">
        <circle cx="420.9" cy="296.5" r="45.7" />
        <path
            d="M520.5 78.1c-45.7 0-103.9 33.6-159.6 87.5-55.7-54-114.3-87.5-159.6-87.5-37.5 0-63.2 19.8-63.2 54.2 0 45.7 33.6 103.9 87.5 159.6-54 55.7-87.5 114.3-87.5 159.6 0 37.5 19.8 63.2 54.2 63.2 45.7 0 103.9-33.6 159.6-87.5 55.7 54 114.3 87.5 159.6 87.5 37.5 0 63.2-19.8 63.2-54.2 0-45.7-33.6-103.9-87.5-159.6 54-55.7 87.5-114.3 87.5-159.6 0-37.5-19.8-63.2-54.2-63.2zm-315.7 34.1c18.6 0 49.8 12.5 81.9 39.3-26.2 24.2-51.9 50.9-75.4 78.3-27.6-31.7-50-64.3-50-90.9 0-20.8 13.6-26.7 43.5-26.7zm0 374.6c-12.5 0-26.7-5.7-26.7-26.7 0-26.2 24.2-63.2 64.3-103.9 26.2 24.2 50.9 50.9 75.4 78.3-31.7 26.8-64.3 50-90.9 50zm158.2-62.6c-22.6-22.6-47.2-47.2-73.9-70.6 23.4-23.4 48-48 73.9-70.6 26.8 22.6 51.4 47.2 73.9 70.6-23.4 23.4-48 48-73.9 70.6zm158.2 62.6c-18.6 0-49.8-12.5-81.9-39.3 26.2-24.2 51.9-50.9 75.4-78.3 27.6 31.7 50 64.3 50 90.9-.1 20.9-13.7 26.7-43.5 26.7zm0-374.6c12.5 0 26.7 5.7 26.7 26.7 0 26.2-24.2 63.2-64.3 103.9-26.2-24.2-50.9-50.9-75.4-78.3 31.7-26.7 64.3-50 90.9-50zm-158.2 62.6c22.6 22.6 47.2 47.2 73.9 70.6-23.4 23.4-48 48-73.9 70.6-26.8-22.6-51.4-47.2-73.9-70.6 23.4-23.5 48-48 73.9-70.6z" />
    </g>
</svg>
  