<svg width="36" height="36" viewBox="0 0 256 417" xmlns="http://www.w3.org/2000/svg">
    <path fill="#47A248"
        d="M124.859 0s-6.553 27.233-6.553 36.254v346.346c0 13.263 3.287 32.326 3.287 32.326h3.225s3.226-19.063 3.226-32.326V36.254C131.412 27.233 124.86 0 124.86 0z" />
    <path fill="#599636"
        d="M122.509 28.618s-21.647 81.778-21.647 113.19c0 34.03 21.647 53.663 21.647 53.663h3.288s21.647-19.633 21.647-53.663c0-31.412-21.647-113.19-21.647-113.19h-3.288z" />
    <path fill="#6CAC48"
        d="M125.182 26.803s-14.158 63.36-14.158 87.639c0 27.065 14.158 42.632 14.158 42.632s14.158-15.567 14.158-42.632c0-24.28-14.158-87.64-14.158-87.64z" />
    <path fill="#C2BFBF"
        d="M121.572 416.242s-8.625-3.898-10.9-6.485c-1.346-1.52-5.147-5.636-5.803-7.784-.725-2.243-2.408-8.299-2.408-8.299s-.379 11.056 3.377 16.483c1.913 2.785 8.633 7.268 13.086 8.453.345.088 1.375-.453 1.048-.968-.638-.975-1.4-1.494-1.4-1.494z" />
</svg>
  